<?xml version="1.0" standalone="no"?>
<!DOCTYPE svg PUBLIC "-//W3C//DTD SVG 20010904//EN"
 "http://www.w3.org/TR/2001/REC-SVG-20010904/DTD/svg10.dtd">
<svg version="1.0" xmlns="http://www.w3.org/2000/svg"
 width="512.000000pt" height="512.000000pt" viewBox="0 0 512.000000 512.000000"
 preserveAspectRatio="xMidYMid meet">
<metadata>
Created by potrace 1.14, written by Peter Selinger 2001-2017
</metadata>
<g transform="translate(0.000000,512.000000) scale(0.100000,-0.100000)"
fill="#000000" stroke="none">
<path d="M245 4707 c-53 -14 -136 -98 -153 -153 -17 -59 -17 -2953 0 -3022 15
-60 94 -142 154 -160 32 -9 406 -12 1601 -12 l1559 0 449 -450 c314 -313 465
-458 500 -477 38 -20 66 -28 116 -30 107 -4 144 20 341 215 202 200 229 243
224 352 -5 94 -34 142 -166 275 l-110 110 57 7 c87 10 139 42 189 117 l29 45
3 1490 c3 1669 7 1556 -69 1634 -78 78 126 72 -2413 71 -1547 -1 -2284 -4
-2311 -12z"/>
</g>
</svg>
